<svg width="70" height="59" viewBox="0 0 70 59" fill="none" xmlns="http://www.w3.org/2000/svg">
<rect width="69.8374" height="58.6667" rx="19" transform="matrix(1 0 0 -1 0 58.667)" fill="#E5E5E5"/>
<path d="M41.264 15.368C41.296 15.592 41.312 15.8 41.312 15.992C41.312 16.184 41.312 16.376 41.312 16.568V18.536L41.024 43.448V43.928C41.024 44.12 40.976 44.408 40.88 44.792C40.848 44.952 40.8 45.128 40.736 45.32C40.672 45.48 40.608 45.656 40.544 45.848C40.384 46.232 40.16 46.52 39.872 46.712C39.616 46.968 39.2 47.144 38.624 47.24C37.728 47.432 36.912 47.352 36.176 47C35.76 46.744 35.472 46.424 35.312 46.04C35.248 45.976 35.184 45.88 35.12 45.752C35.12 45.688 35.088 45.592 35.024 45.464C34.96 45.304 34.912 45.144 34.88 44.984C34.848 44.792 34.816 44.6 34.784 44.408C34.784 44.248 34.768 44.088 34.736 43.928C34.736 43.768 34.72 43.608 34.688 43.448C34.624 43.288 34.592 43.16 34.592 43.064C34.592 42.936 34.592 42.792 34.592 42.632C34.656 42.504 34.688 42.264 34.688 41.912L34.736 38.12L34.784 32.072H32.192L22.448 32.12L22.352 43.448V43.928C22.352 44.12 22.304 44.408 22.208 44.792C22.176 44.952 22.128 45.128 22.064 45.32C22 45.48 21.936 45.656 21.872 45.848C21.712 46.232 21.488 46.52 21.2 46.712C20.944 46.968 20.528 47.144 19.952 47.24C19.056 47.432 18.24 47.352 17.504 47C17.184 46.808 16.88 46.488 16.592 46.04C16.528 45.912 16.496 45.816 16.496 45.752L16.352 45.464C16.288 45.304 16.24 45.144 16.208 44.984C16.176 44.792 16.144 44.6 16.112 44.408C16.112 44.248 16.096 44.088 16.064 43.928C16.032 43.768 16 43.608 15.968 43.448C15.936 43.192 15.936 42.92 15.968 42.632V41.912L16.016 38.12L16.112 31.064C16.144 30.04 16.16 28.984 16.16 27.896C16.16 26.808 16.16 25.688 16.16 24.536C16.128 23.384 16.112 22.36 16.112 21.464C16.144 20.568 16.192 19.56 16.256 18.44V18.248C16.288 17.928 16.304 17.608 16.304 17.288C16.304 16.936 16.32 16.584 16.352 16.232C16.384 15.912 16.432 15.608 16.496 15.32C16.592 15 16.72 14.68 16.88 14.36C16.976 14.104 17.104 13.896 17.264 13.736C17.424 13.544 17.616 13.368 17.84 13.208C18.352 12.952 18.864 12.824 19.376 12.824C19.632 12.824 19.856 12.84 20.048 12.872C20.24 12.872 20.432 12.888 20.624 12.92C21.008 12.952 21.376 13.144 21.728 13.496C21.984 13.72 22.16 13.976 22.256 14.264C22.416 14.68 22.512 15.048 22.544 15.368C22.576 15.592 22.592 15.8 22.592 15.992C22.592 16.184 22.592 16.376 22.592 16.568V18.536L22.496 26.456C22.752 26.456 23.04 26.456 23.36 26.456C23.712 26.456 24.112 26.44 24.56 26.408C26.224 26.408 27.872 26.424 29.504 26.456C31.168 26.488 32.912 26.504 34.736 26.504H34.784C34.784 25.064 34.784 23.688 34.784 22.376C34.816 21.064 34.864 19.688 34.928 18.248C34.928 17.928 34.928 17.608 34.928 17.288C34.96 16.936 34.992 16.584 35.024 16.232C35.056 15.912 35.104 15.608 35.168 15.32C35.264 15 35.392 14.68 35.552 14.36C35.616 14.104 35.728 13.896 35.888 13.736C36.08 13.544 36.304 13.368 36.56 13.208C37.008 12.952 37.504 12.824 38.048 12.824C38.304 12.824 38.528 12.84 38.72 12.872C38.944 12.872 39.136 12.888 39.296 12.92C39.744 12.984 40.112 13.176 40.4 13.496C40.656 13.656 40.832 13.912 40.928 14.264C40.992 14.456 41.04 14.648 41.072 14.84C41.136 15 41.2 15.176 41.264 15.368ZM46.658 41.912L46.706 38.12L46.754 31.064C46.786 30.04 46.802 28.984 46.802 27.896C46.802 26.808 46.802 25.688 46.802 24.536C46.802 23.384 46.802 22.36 46.802 21.464C46.802 20.568 46.834 19.56 46.898 18.44V18.248C46.93 17.928 46.946 17.608 46.946 17.288C46.978 16.936 46.994 16.584 46.994 16.232C47.026 15.656 47.202 15.032 47.522 14.36C47.746 13.912 48.082 13.528 48.53 13.208C49.042 12.952 49.538 12.824 50.018 12.824C50.274 12.824 50.498 12.84 50.69 12.872C50.914 12.872 51.122 12.888 51.314 12.92C51.73 12.984 52.098 13.176 52.418 13.496C52.61 13.656 52.786 13.912 52.946 14.264C53.01 14.456 53.058 14.648 53.09 14.84C53.154 15 53.202 15.176 53.234 15.368C53.266 15.592 53.282 15.8 53.282 15.992C53.314 16.184 53.33 16.376 53.33 16.568C53.33 16.792 53.314 17 53.282 17.192C53.282 17.352 53.282 17.528 53.282 17.72V18.536L52.994 43.448V43.928C52.994 44.024 52.978 44.152 52.946 44.312C52.946 44.44 52.93 44.6 52.898 44.792C52.834 44.952 52.77 45.128 52.706 45.32C52.674 45.48 52.626 45.656 52.562 45.848C52.466 46.008 52.354 46.168 52.226 46.328C52.13 46.456 52.002 46.584 51.842 46.712C51.586 46.968 51.17 47.144 50.594 47.24C49.73 47.432 48.914 47.352 48.146 47C47.762 46.744 47.49 46.424 47.33 46.04C47.234 45.944 47.186 45.848 47.186 45.752C47.154 45.688 47.122 45.64 47.09 45.608C47.058 45.576 47.026 45.528 46.994 45.464C46.93 45.304 46.882 45.144 46.85 44.984C46.818 44.792 46.802 44.6 46.802 44.408C46.77 44.248 46.738 44.088 46.706 43.928C46.706 43.768 46.69 43.608 46.658 43.448C46.626 43.192 46.626 42.92 46.658 42.632V41.912Z" fill="#3F3F46"/>
</svg>
        